<?xml version="1.0" encoding="utf-8"?>
<!-- Generator: Adobe Illustrator 15.0.0, SVG Export Plug-In . SVG Version: 6.00 Build 0)  -->
<!DOCTYPE svg PUBLIC "-//W3C//DTD SVG 1.1 Basic//EN" "http://www.w3.org/Graphics/SVG/1.1/DTD/svg11-basic.dtd">
<svg version="1.1" baseProfile="basic" id="Layer_1"
	 xmlns="http://www.w3.org/2000/svg" xmlns:xlink="http://www.w3.org/1999/xlink" x="0px" y="0px" width="1024px" height="1024px"
	 viewBox="0 0 1024 1024" xml:space="preserve">
<polygon points="645.562,1024 646.658,876.323 816.087,821.971 874.582,895.622 959.068,900.29 952.438,788.261 971.167,714.729 
	876.197,687.702 901.035,637.556 885.532,545.817 898.962,537.686 1022.862,589.551 1024,541.287 991.227,474.864 1016.807,420.111 
	962.001,405.131 962.001,363.233 867.255,387.608 959.526,326.062 1024,287.27 1023.723,215.633 922.239,210.503 848.242,242.608 
	816.139,174.198 865.872,124.523 868.467,73.806 809.509,72.769 802.77,10.239 713.667,41.876 694.48,108.324 653.275,122.667 
	642.262,71.838 567.18,0.321 476.931,9.768 509.089,94.254 508.052,133.616 558.486,196.204 550.703,232.392 559.464,258.155 
	517.455,324.316 467.722,246.688 464.609,121.751 438.161,27.004 385.833,23.894 316.392,120.655 311.78,169.182 241.237,46.318 
	188.388,16.755 134.567,61.528 130.989,101.294 62.526,93.517 36.541,150.858 126.784,212.468 246.884,289.634 207.985,362.706 
	187.816,287.099 102.352,264.276 73.362,309.342 95.67,369.395 59.99,384.839 65.232,455.263 91.053,469.158 52.151,538.02 
	48.005,638.99 133.692,614.908 81.943,652.65 81.943,689.879 135.36,722.852 115.19,758.465 159.799,853.668 191.377,855.227 
	218.751,814.486 245.72,891.078 304.795,916.378 345.134,840.079 426.223,848.891 444.894,892.75 444.882,1024 "/>
<polygon fill="#A90000" points="676.32,262.184 698.801,238.696 722.023,270.102 "/>
<polygon fill="#A90000" points="382.059,426.625 343.582,458.449 305.605,441.152 308.41,399.41 "/>
<polygon fill="#A90000" points="137.445,596.707 157.89,561.535 207.632,535.931 185.53,596.665 210.745,619.536 254.64,615.075 
	226.66,635.794 152.051,625.032 "/>
<polygon fill="#A90000" points="694.762,405.949 726.512,379.387 719.059,402.567 "/>
</svg>
